<?xml version="1.0" encoding="utf-8"?>
<!-- Generator: Adobe Illustrator 28.2.0, SVG Export Plug-In . SVG Version: 6.00 Build 0)  -->
<svg version="1.1" id="Layer_1" xmlns="http://www.w3.org/2000/svg" xmlns:xlink="http://www.w3.org/1999/xlink" x="0px" y="0px"
	 viewBox="0 0 242 234.6" style="enable-background:new 0 0 242 234.6;" xml:space="preserve">
<style type="text/css">
	.st0{fill:#6A62FA;}
	.st1{fill:#FECD0F;}
</style>
<g id="Layer_1_00000065069204575337172390000010439936089095434117_">
</g>
<g id="Layer_2_00000131342842356623154810000014608901488451346596_">
	<path class="st0" d="M219.5,47v140.6c-5.5,7.7-11.9,14.7-19,20.9V26.1C207.6,32.3,214,39.3,219.5,47z"/>
	<path class="st0" d="M242,117.3c0,18-3.9,35.1-11,50.5v-101C238.1,82.2,242,99.3,242,117.3z"/>
	<path class="st1" d="M184.5,14.3v206c-10.2,6.3-21.5,11.2-33.5,14.2V0.1C163,3.1,174.2,8,184.5,14.3z"/>
	<path class="st0" d="M41.8,25.9v182.9c-7.1-6.2-13.5-13.1-19-20.8V46.7C28.2,39,34.6,32,41.8,25.9z"/>
	<path class="st0" d="M11.2,66.3v102C4,152.8,0,135.5,0,117.3S4,81.8,11.2,66.3z"/>
	<path class="st1" d="M91.2,0v234.6c-12-3-23.2-7.8-33.5-14.2V14.1C68,7.8,79.3,3,91.2,0z"/>
	<circle class="st0" cx="121.1" cy="116.9" r="17.9"/>
</g>
</svg>
