<?xml version="1.0" encoding="utf-8"?>
<!-- Generator: Adobe Illustrator 28.2.0, SVG Export Plug-In . SVG Version: 6.00 Build 0)  -->
<svg version="1.1" xmlns="http://www.w3.org/2000/svg" xmlns:xlink="http://www.w3.org/1999/xlink" x="0px" y="0px"
	 viewBox="0 0 1280 264" style="enable-background:new 0 0 1280 264;" xml:space="preserve">
<style type="text/css">
	.st0{fill:#FECD0F;}
	.st1{fill:#555FAB;}
</style>
<g id="Layer_1">
</g>
<g id="Layer_2">
	<polygon class="st0" points="317.3,19.9 358.1,19.9 358.1,64.9 397.1,64.9 397.1,19.9 437.8,19.9 437.8,42.4 425.8,42.4 
		425.8,84.9 329.1,84.9 329.1,42.1 317.3,42.1 	"/>
	<polygon class="st1" points="329.3,99.4 329.3,115.1 317.3,115.1 317.3,137.1 358.3,137.1 358.3,99.4 	"/>
	<polygon class="st1" points="630,99.4 630,115.1 618,115.1 618,137.1 659,137.1 659,99.4 	"/>
	<polygon class="st1" points="425.6,99.4 425.6,115.1 437.6,115.1 437.6,137.1 396.6,137.1 396.6,99.4 	"/>
	<path class="st1" d="M586.5,100.1c-8.6,23-30.8,39.4-56.8,39.4c-26,0-48.2-16.4-56.8-39.4L586.5,100.1z"/>
	<path class="st0" d="M469.4,85.1c-0.2-2-0.3-4.1-0.3-6.2c0-33.5,27.1-60.6,60.6-60.6s60.6,27.1,60.6,60.6c0,2.1-0.1,4.2-0.3,6.3
		l-29.8,0c0.4-2.4,0.6-4.8,0.6-7.3c0-20.7-13.9-37.5-31.1-37.5s-31.1,16.8-31.1,37.5c0,2.5,0.2,4.9,0.6,7.3L469.4,85.1z"/>
	<path class="st1" d="M1096.8,100.1c-8.6,23-30.8,39.4-56.8,39.4c-26,0-48.2-16.4-56.8-39.4L1096.8,100.1z"/>
	<path class="st0" d="M979.7,85.1c-0.2-2-0.3-4.1-0.3-6.2c0-33.5,27.1-60.6,60.6-60.6c33.5,0,60.6,27.1,60.6,60.6
		c0,2.1-0.1,4.2-0.3,6.3l-29.8,0c0.4-2.4,0.6-4.8,0.6-7.3c0-20.7-13.9-37.5-31.1-37.5c-17.2,0-31.1,16.8-31.1,37.5
		c0,2.5,0.2,4.9,0.6,7.3L979.7,85.1z"/>
	<path class="st0" d="M721.1,52.6c0-32.7-37.7-32.6-37.7-32.6H618v22.3h11.6v42.8h72.6C722.6,75.3,721.1,52.6,721.1,52.6z
		 M681.4,70.3h-22.5V42.2h19.3c6.6,0.4,14.3,5.1,14.4,15.4C692.8,67.9,681.4,70.3,681.4,70.3z"/>
	<polygon class="st1" points="675,100 707.7,100 716.3,115.4 729.6,115.4 729.6,137.1 696.1,137.1 	"/>
	<polygon class="st1" points="779.2,99.5 779.2,115.2 767.1,115.2 767.1,137.1 821,137.1 821,115.2 808.3,115.2 808.3,99.5 	"/>
	<polygon class="st0" points="808.2,85 808.2,42.2 821,42.2 821,20.5 767.3,20.5 767.3,42.1 779.1,42.1 779.1,85 	"/>
	<polygon class="st0" points="878.1,53.9 878.1,42.2 905.8,42.2 877.1,85 910.2,85 943.7,34.1 943.7,20.1 856.1,20.1 856.1,54 	"/>
	<polygon class="st1" points="867.3,99.5 852.3,121.9 852.3,137.5 946.1,137.5 946.1,102.6 923.8,102.6 923.8,115.1 889.7,115.1 
		900.5,99.5 	"/>
	<polygon class="st1" points="1190.6,100.1 1241.6,100.1 1241.6,137.9 1217.6,137.9 	"/>
	<polygon class="st1" points="1128.1,115.1 1128.1,137.9 1162.1,137.9 1162.1,100.1 1139.6,100.1 1139.6,115.1 	"/>
	<polygon class="st0" points="1162.1,85.2 1162.1,62 1179.5,85.2 1216.1,85.2 1168.9,19.9 1128.2,19.9 1128.2,42.4 1140,42.4 
		1140,85.2 	"/>
	<polygon class="st0" points="1219.1,85.2 1241.6,85.2 1241.6,42.6 1253.5,42.6 1253.5,19.9 1219.1,19.9 	"/>
	<path class="st1" d="M254.9,56.6v150.9c-5.9,8.3-12.8,15.8-20.4,22.5V34.1C242.2,40.8,249,48.3,254.9,56.6z"/>
	<path class="st1" d="M279.1,132c0,19.3-4.2,37.7-11.8,54.2V77.8C274.9,94.3,279.1,112.7,279.1,132z"/>
	<path class="st0" d="M217.4,21.4v221.1c-11,6.8-23.1,12-36,15.3V6.2C194.3,9.4,206.4,14.6,217.4,21.4z"/>
	<path class="st1" d="M64.2,33.9v196.3c-7.6-6.6-14.5-14.1-20.4-22.3V56.2C49.7,48,56.5,40.5,64.2,33.9z"/>
	<path class="st1" d="M31.4,77.3v109.5c-7.7-16.6-12.1-35.2-12.1-54.7C19.4,112.4,23.7,93.9,31.4,77.3z"/>
	<path class="st0" d="M117.3,6.1v251.8c-12.9-3.2-25-8.4-36-15.2V21.3C92.3,14.5,104.4,9.3,117.3,6.1z"/>
	<circle class="st1" cx="149.4" cy="131.6" r="19.2"/>
	<circle class="st1" cx="457" cy="232.9" r="19.2"/>
	<circle class="st1" cx="669.6" cy="232.9" r="19.2"/>
	<circle class="st1" cx="899.9" cy="232.9" r="19.2"/>
	<circle class="st1" cx="1103.4" cy="232.9" r="19.2"/>
	<g>
		<path class="st1" d="M356.2,153.2h-14.9c-13.4,0-23.8,10.7-23.8,24.3v5.8c0,9.1,5.5,17.1,14.4,21l25.7,11.2l0.1,0.1
			c1.4,0.6,3.4,2.8,3.4,5.2v4.5c0,4.2-3.2,7.5-7.3,7.5h-10.1c-4,0-7.6-3.5-7.6-7.5v-11.8h-18.8v12.8c0,13.6,10.5,24.3,23.9,24.3
			h14.9c13.3,0,23.7-10.7,23.7-24.3v-5.9c0-9.3-5.3-17-14.5-21.2l-25.5-10.9c-1.5-0.7-3.6-2.9-3.6-5.3v-4.4c0-4.2,3.2-7.5,7.5-7.5
			h10.1c4.1,0,7.5,2.7,7.5,6.1v13.2H380v-14.2C380,163.3,369.6,153.2,356.2,153.2z"/>
		<polygon class="st1" points="532.9,172.8 556.5,172.8 556.5,248.9 575.3,248.9 575.3,172.8 598.7,172.8 598.7,154.9 532.7,154.9 
					"/>
		<path class="st1" d="M767.6,154.9l-25.4,94h19.5l6.1-21.7h19.5l5.9,21.7h19.6l-25.4-94H767.6z M771.8,209.2l5.6-20.1l5.6,20.1
			H771.8z"/>
		<path class="st1" d="M1005.2,153.2H987c-12.8,0-22.4,9.8-22.4,22.9v51.6c0,13,9.6,22.9,22.4,22.9h18.2c12.8,0,22.4-9.8,22.4-22.9
			v-32.8h-36v17.9h17.3v13.8c0,3.7-2.4,6.1-6.1,6.1h-13.2c-3.8,0-6.2-2.4-6.2-6v-49.6c0-3.8,2.4-6.1,6.2-6.1h13.2
			c3.7,0,6.1,2.4,6.1,6.1v11.3h18.7v-12.4C1027.5,163.1,1017.9,153.2,1005.2,153.2z"/>
		<polygon class="st1" points="1246,172.6 1246,154.9 1188.9,154.9 1188.9,248.9 1246,248.9 1246,231.2 1207.7,231.2 1207.7,210.2 
			1239.4,210.2 1239.4,192.3 1207.7,192.3 1207.7,172.6 		"/>
	</g>
</g>
</svg>
